<svg width="47" height="43" viewBox="0 0 47 43" fill="none" xmlns="http://www.w3.org/2000/svg">
<path d="M39.1024 8.29561C38.2007 7.39341 37.13 6.67773 35.9515 6.18944C34.7731 5.70115 33.51 5.44983 32.2344 5.44983C30.9588 5.44983 29.6957 5.70115 28.5173 6.18944C27.3388 6.67773 26.2681 7.39341 25.3664 8.29561L23.4949 10.1671L21.6234 8.29561C19.8019 6.47409 17.3314 5.45077 14.7553 5.45077C12.1793 5.45077 9.70883 6.47409 7.88731 8.29561C6.0658 10.1171 5.04248 12.5876 5.04248 15.1636C5.04248 17.7397 6.0658 20.2102 7.88731 22.0317L9.75881 23.9032L23.4949 37.6392L37.2309 23.9032L39.1024 22.0317C40.0046 21.1299 40.7203 20.0592 41.2086 18.8808C41.6969 17.7023 41.9482 16.4392 41.9482 15.1636C41.9482 13.888 41.6969 12.6249 41.2086 11.4465C40.7203 10.2681 40.0046 9.19738 39.1024 8.29561V8.29561Z" stroke="white" stroke-width="5.82" stroke-linecap="round" stroke-linejoin="round"/>
</svg>
