<svg width="104" height="144" viewBox="0 0 104 144" fill="none" xmlns="http://www.w3.org/2000/svg">
<path d="M15.2934 132.217C13.2405 130.144 12.214 127.627 12.214 124.666C12.214 121.705 13.2405 119.188 15.2934 117.115C17.3662 115.023 19.883 113.977 22.844 113.977C25.805 113.977 28.3219 115.023 30.3946 117.115C32.4673 119.188 33.5037 121.705 33.5037 124.666C33.5037 126.64 32.9806 128.476 31.9343 130.174C30.8881 131.851 29.4866 133.174 27.7297 134.141L31.431 139.975C31.5691 140.172 31.579 140.369 31.4606 140.567C31.3619 140.764 31.1941 140.863 30.9572 140.863H27.8185C27.6014 140.863 27.4435 140.764 27.3448 140.567L24.1765 135.207C23.7027 135.266 23.2586 135.296 22.844 135.296C19.883 135.296 17.3662 134.27 15.2934 132.217ZM18.0472 119.84C16.7246 121.182 16.0633 122.791 16.0633 124.666C16.0633 126.541 16.7246 128.14 18.0472 129.463C19.3895 130.785 20.9885 131.447 22.844 131.447C24.7193 131.447 26.3183 130.785 27.6409 129.463C28.9832 128.121 29.6544 126.522 29.6544 124.666C29.6544 122.791 28.9832 121.182 27.6409 119.84C26.2985 118.497 24.6996 117.826 22.844 117.826C20.9885 117.826 19.3895 118.497 18.0472 119.84Z" fill="white"/>
<path d="M35.2835 129.463V123.719C35.2835 123.561 35.3329 123.432 35.4316 123.334C35.55 123.215 35.6882 123.156 35.8461 123.156H38.2741C38.4321 123.156 38.5604 123.215 38.6591 123.334C38.7775 123.432 38.8367 123.561 38.8367 123.719V129.552C38.8367 130.341 39.0243 130.963 39.3993 131.417C39.7941 131.871 40.3271 132.098 40.9983 132.098C41.5905 132.098 42.1037 131.871 42.538 131.417C42.992 130.963 43.2684 130.45 43.3671 129.877V123.719C43.3671 123.501 43.4164 123.353 43.5151 123.274C43.6138 123.195 43.7816 123.156 44.0185 123.156H46.2689C46.4268 123.156 46.5551 123.215 46.6538 123.334C46.7722 123.432 46.8315 123.561 46.8315 123.719V134.437C46.8315 134.576 46.7722 134.704 46.6538 134.822C46.5551 134.941 46.4268 135 46.2689 135H45.1733C44.9167 135 44.7292 134.852 44.6107 134.556L44.2554 133.579C44.2357 133.598 44.1567 133.668 44.0185 133.786C43.9001 133.904 43.8014 133.993 43.7224 134.052C43.6632 134.112 43.5447 134.201 43.3671 134.319C43.2092 134.437 43.0611 134.536 42.9229 134.615C42.8045 134.694 42.6367 134.783 42.4196 134.882C42.2222 134.98 42.0149 135.049 41.7977 135.089C41.6003 135.148 41.3635 135.197 41.0871 135.237C40.8305 135.276 40.564 135.296 40.2876 135.296C38.5702 135.296 37.3069 134.743 36.4975 133.638C35.6882 132.532 35.2835 131.141 35.2835 129.463Z" fill="white"/>
<path d="M51.5374 118.951C50.9847 118.951 50.5109 118.754 50.1161 118.359C49.7213 117.964 49.5239 117.481 49.5239 116.908C49.5239 116.336 49.7213 115.852 50.1161 115.457C50.5109 115.063 50.9847 114.865 51.5374 114.865C52.1099 114.865 52.5935 115.063 52.9883 115.457C53.4028 115.852 53.6101 116.336 53.6101 116.908C53.6101 117.481 53.4028 117.964 52.9883 118.359C52.5935 118.754 52.1099 118.951 51.5374 118.951ZM49.7904 134.437V123.719C49.7904 123.561 49.8398 123.432 49.9385 123.334C50.0569 123.215 50.1951 123.156 50.353 123.156H52.8106C52.9686 123.156 53.0969 123.215 53.1956 123.334C53.314 123.432 53.3732 123.561 53.3732 123.719V134.437C53.3732 134.576 53.314 134.704 53.1956 134.822C53.0969 134.941 52.9686 135 52.8106 135H50.353C50.2148 135 50.0865 134.941 49.9681 134.822C49.8496 134.704 49.7904 134.576 49.7904 134.437Z" fill="white"/>
<path d="M55.4522 134.437V134.141L59.6568 126.383V126.324H56.2813C56.1431 126.324 56.0148 126.275 55.8963 126.176C55.7976 126.058 55.7483 125.92 55.7483 125.762V123.719C55.7483 123.561 55.7976 123.432 55.8963 123.334C55.995 123.215 56.1233 123.156 56.2813 123.156H64.0983C64.3155 123.156 64.4833 123.245 64.6017 123.422C64.7202 123.58 64.7202 123.758 64.6017 123.955L60.3082 131.772V131.861H63.5061C63.8812 131.861 64.0687 132.049 64.0687 132.424V134.437C64.0687 134.595 64.0095 134.734 63.8911 134.852C63.7924 134.951 63.6641 135 63.5061 135H56.0148C55.8766 135 55.7483 134.941 55.6298 134.822C55.5114 134.704 55.4522 134.576 55.4522 134.437Z" fill="white"/>
<path d="M66.3846 129.463V123.719C66.3846 123.561 66.4339 123.432 66.5326 123.334C66.6511 123.215 66.7892 123.156 66.9472 123.156H69.3752C69.5331 123.156 69.6614 123.215 69.7601 123.334C69.8786 123.432 69.9378 123.561 69.9378 123.719V129.552C69.9378 130.341 70.1253 130.963 70.5004 131.417C70.8952 131.871 71.4282 132.098 72.0993 132.098C72.6915 132.098 73.2048 131.871 73.639 131.417C74.0931 130.963 74.3694 130.45 74.4681 129.877V123.719C74.4681 123.501 74.5175 123.353 74.6162 123.274C74.7149 123.195 74.8827 123.156 75.1196 123.156H77.3699C77.5278 123.156 77.6562 123.215 77.7549 123.334C77.8733 123.432 77.9325 123.561 77.9325 123.719V134.437C77.9325 134.576 77.8733 134.704 77.7549 134.822C77.6562 134.941 77.5278 135 77.3699 135H76.2744C76.0177 135 75.8302 134.852 75.7118 134.556L75.3564 133.579C75.3367 133.598 75.2577 133.668 75.1196 133.786C75.0011 133.904 74.9024 133.993 74.8235 134.052C74.7642 134.112 74.6458 134.201 74.4681 134.319C74.3102 134.437 74.1622 134.536 74.024 134.615C73.9055 134.694 73.7377 134.783 73.5206 134.882C73.3232 134.98 73.1159 135.049 72.8988 135.089C72.7014 135.148 72.4645 135.197 72.1881 135.237C71.9315 135.276 71.665 135.296 71.3887 135.296C69.6713 135.296 68.4079 134.743 67.5986 133.638C66.7892 132.532 66.3846 131.141 66.3846 129.463Z" fill="white"/>
<path d="M84.5335 134.645V143.32C84.5335 143.696 84.2966 143.883 83.8229 143.883H81.454C81.3159 143.883 81.1876 143.824 81.0691 143.705C80.9507 143.587 80.8915 143.459 80.8915 143.32V123.719C80.8915 123.561 80.9408 123.432 81.0395 123.334C81.1579 123.215 81.2961 123.156 81.454 123.156H82.6088C82.8457 123.156 83.0135 123.274 83.1122 123.511L83.4971 124.488C83.7735 124.113 84.2571 123.748 84.948 123.393C85.6587 123.038 86.4483 122.86 87.3168 122.86C88.9355 122.86 90.2877 123.472 91.3734 124.696C92.4789 125.9 93.0316 127.361 93.0316 129.078C93.0316 130.815 92.4591 132.286 91.3142 133.49C90.1693 134.694 88.7875 135.296 87.1688 135.296C86.1818 135.296 85.3034 135.079 84.5335 134.645ZM84.3855 131.417C84.9382 131.871 85.708 132.098 86.695 132.098C87.5241 132.098 88.2052 131.812 88.7381 131.24C89.2909 130.647 89.5672 129.927 89.5672 129.078C89.5672 128.229 89.3106 127.519 88.7974 126.946C88.2841 126.354 87.6228 126.058 86.8135 126.058C86.1423 126.058 85.5995 126.255 85.1849 126.65C84.7704 127.045 84.5039 127.449 84.3855 127.864V131.417Z" fill="white"/>
<rect width="104" height="104" rx="18.3529" fill="white"/>
<path d="M31.8229 58.1841L30.4337 53.5275L49.716 59.9304L45.0019 64.5285L33.2136 59.7175C32.5417 59.4433 32.0304 58.8794 31.8229 58.1841Z" fill="#FF8FA3"/>
<path fill-rule="evenodd" clip-rule="evenodd" d="M68.1884 22.2151C68.8923 23.35 69.0843 24.8197 68.3563 26.3592L60.5489 42.8687C60.1899 43.6278 60.5392 44.5328 61.315 44.854L72.2972 49.4008L71.897 48.5374L72.903 47.747L74.8149 51.9509L74.8051 51.9622C75.3347 53.3927 75.1243 55.0814 74.017 56.3704L46.5319 88.3649C44.0757 91.224 40.0968 89.8272 39.0198 87.0461L37.2999 83.2203L38.765 81.9497L39.4663 83.0563L47.0123 67.0996C47.3713 66.3405 47.0221 65.4355 46.2462 65.1143L35.2013 60.5415C32.4298 59.394 31.5896 55.8732 33.5442 53.5978L61.0294 21.6034C62.4837 19.9104 64.472 19.7096 66.0755 20.4049L65.5207 19.2077L66.7432 18.9569L68.1957 22.1984L68.1884 22.2151ZM63.258 23.5179C64.3738 22.219 65.4767 23.3409 64.7447 24.8889L56.9373 41.3984C55.8604 43.6757 57.8636 46.605 60.1911 47.5686L69.3248 51.7129C70.2486 52.0953 70.5287 53.2689 69.8772 54.0274L42.0984 84.363L49.6683 68.3556C50.7452 66.0783 49.6976 63.3633 47.3701 62.3997L36.3252 57.8269C35.4014 57.4444 35.1213 56.2708 35.7728 55.5123L63.258 23.5179ZM42.0984 84.363L41.8609 84.8651C41.6156 85.3838 41.3858 85.6992 41.2307 85.8405L41.1016 85.6368C41.1888 85.453 41.3629 85.1869 41.6507 84.8519L42.0984 84.363Z" fill="#FF8FA3"/>
<path fill-rule="evenodd" clip-rule="evenodd" d="M63.3047 21.6676C64.0367 20.1196 62.9338 18.9977 61.818 20.2966L34.3328 52.291C33.6813 53.0495 33.9613 54.2231 34.8852 54.6056L45.9301 59.1784C48.2576 60.142 49.3052 62.857 48.2283 65.1343L40.4209 81.6438C39.6889 83.1918 39.0948 82.9295 40.2107 81.6306L68.4372 50.8061C69.0887 50.0476 68.8086 48.874 67.8848 48.4915L58.7511 44.3473C56.4236 43.3836 54.4204 40.4544 55.4973 38.1771L63.3047 21.6676ZM59.5894 18.3821C62.9368 14.4854 69.1124 18.4939 66.9163 23.1379L59.1089 39.6474C58.7499 40.4065 59.0992 41.3115 59.875 41.6327L70.9199 46.2055C73.6914 47.3529 74.5316 50.8738 72.577 53.1491L45.0919 85.1435C41.7444 89.0402 35.5688 85.0317 37.7649 80.3877L45.5723 63.8783C45.9313 63.1192 45.8227 61.6371 45.0469 61.3159L34.0558 56.9485C31.2843 55.8011 30.1496 52.6519 32.1042 50.3765L59.5894 18.3821Z" fill="#7491F6"/>
<path d="M30.8578 54.9598L29.4686 50.3032L48.7509 56.7061L44.0367 61.3042L32.2484 56.4931C31.5766 56.219 31.0652 55.6551 30.8578 54.9598Z" fill="#7491F6"/>
<path d="M63.9269 18.8526C65.391 15.7566 61.2739 13.0843 59.0422 15.6821L31.5571 47.6765C30.254 49.1934 30.8142 51.5406 32.6618 52.3056L43.7067 56.8784C45.2584 57.5208 45.9568 59.3308 45.2389 60.849L37.4315 77.3585C35.9674 80.4545 40.0845 83.1268 42.3161 80.529L69.8013 48.5346C71.1044 47.0177 70.5442 44.6705 68.6966 43.9055L57.6516 39.3327C56.1 38.6903 55.4015 36.8803 56.1195 35.3621L63.9269 18.8526Z" fill="white" stroke="#7491F6" stroke-width="2.93803" stroke-linecap="round" stroke-linejoin="round"/>
<path d="M37.8727 84.4153L35.8248 79.9967L37.2899 78.726L40.626 83.9905L37.8727 84.4153Z" fill="#7491F6"/>
<path d="M72.505 49.7348L70.4571 45.3162L71.4631 44.5257L73.375 48.7297L72.505 49.7348Z" fill="#7491F6"/>
<path d="M66.1286 20.405L64.0807 15.9864L65.3033 15.7357L66.7557 18.9772L66.1286 20.405Z" fill="#7491F6"/>
</svg>
