<svg width="139" height="46" viewBox="0 0 139 46" fill="none" xmlns="http://www.w3.org/2000/svg">
<rect width="46" height="46" rx="8.11765" fill="white"/>
<path fill-rule="evenodd" clip-rule="evenodd" d="M28.6369 11.0085C28.9607 10.3238 28.4728 9.82762 27.9793 10.4021L15.8224 24.5535C15.5342 24.889 15.6581 25.4081 16.0667 25.5773L20.952 27.5998C21.9814 28.0261 22.4448 29.2269 21.9685 30.2342L18.5152 37.5365C18.1914 38.2211 17.9287 38.1052 18.4222 37.5306L30.907 23.8967C31.1952 23.5612 31.0713 23.0421 30.6627 22.873L26.6228 21.0399C25.5933 20.6137 24.7073 19.3181 25.1836 18.3108L28.6369 11.0085ZM26.9936 9.55533C28.4742 7.8318 31.2057 9.60479 30.2343 11.6589L26.7811 18.9611C26.6223 19.2969 26.7767 19.6972 27.1199 19.8392L32.0052 21.8618C33.231 22.3694 33.6026 23.9267 32.7381 24.933L20.5812 39.0844C19.1006 40.808 16.3691 39.035 17.3404 36.9809L20.7937 29.6786C20.9525 29.3429 20.798 28.9426 20.4549 28.8005L15.5696 26.7779C14.3438 26.2704 13.9721 24.7131 14.8367 23.7067L26.9936 9.55533Z" fill="#FF8FA3"/>
<path d="M17.2882 38.5658L16.4984 36.809L17.1464 36.247L18.622 38.5755L17.2882 38.5658Z" fill="#FF8FA3"/>
<path d="M14.0754 25.7353L13.4609 23.6756L21.9896 26.5077L19.9045 28.5414L14.6905 26.4135C14.3933 26.2922 14.1671 26.0428 14.0754 25.7353Z" fill="#FF8FA3"/>
<path d="M32.7073 23.4228L31.8015 21.4685L32.2465 21.1188L33.0921 22.9783L32.7073 23.4228Z" fill="#FF8FA3"/>
<path d="M29.8865 10.4501L28.9807 8.49571L29.5215 8.38479L30.1639 9.81853L29.8865 10.4501Z" fill="#FF8FA3"/>
<path fill-rule="evenodd" clip-rule="evenodd" d="M27.9995 9.58373C28.3233 8.89905 27.8354 8.40281 27.3419 8.97733L15.185 23.1287C14.8968 23.4642 15.0207 23.9833 15.4293 24.1524L20.3146 26.175C21.344 26.6012 21.8074 27.8021 21.3311 28.8094L17.8778 36.1117C17.554 36.7963 17.2913 36.6804 17.7848 36.1058L30.2696 22.4719C30.5578 22.1364 30.4339 21.6173 30.0253 21.4482L25.9854 19.6151C24.9559 19.1889 24.0699 17.8933 24.5462 16.886L27.9995 9.58373ZM26.3562 8.13053C27.8368 6.407 30.5683 8.17998 29.5969 10.2341L26.1437 17.5363C25.9849 17.8721 26.1393 18.2724 26.4825 18.4144L31.3678 20.437C32.5936 20.9446 32.9653 22.5019 32.1007 23.5082L19.9438 37.6596C18.4632 39.3832 15.7317 37.6102 16.703 35.5561L20.1563 28.2538C20.3151 27.9181 20.2671 27.2625 19.9239 27.1205L15.0625 25.1888C13.8366 24.6812 13.3347 23.2883 14.1993 22.2819L26.3562 8.13053Z" fill="#7491F6"/>
<path d="M13.6486 24.3091L13.0342 22.2495L21.5629 25.0815L19.4778 27.1153L14.2637 24.9873C13.9666 24.8661 13.7404 24.6167 13.6486 24.3091Z" fill="#7491F6"/>
<path d="M28.276 8.33864C28.9236 6.96926 27.1026 5.78727 26.1155 6.93629L13.9586 21.0877C13.3822 21.7586 13.63 22.7968 14.4472 23.1352L19.3325 25.1577C20.0188 25.4419 20.3277 26.2425 20.0102 26.914L16.5569 34.2162C15.9093 35.5856 17.7303 36.7676 18.7174 35.6186L30.8743 21.4672C31.4507 20.7963 31.2029 19.7581 30.3857 19.4197L25.5004 17.3971C24.8141 17.113 24.5052 16.3124 24.8227 15.6409L28.276 8.33864Z" fill="white" stroke="#7491F6" stroke-width="1.29951" stroke-linecap="round" stroke-linejoin="round"/>
<path d="M16.7519 37.3375L15.8461 35.3831L16.4941 34.8211L17.9697 37.1496L16.7519 37.3375Z" fill="#7491F6"/>
<path d="M32.0706 21.9981L31.1648 20.0437L31.6097 19.6941L32.4554 21.5535L32.0706 21.9981Z" fill="#7491F6"/>
<path d="M29.2498 9.02528L28.344 7.07091L28.8847 6.95998L29.5272 8.39372L29.2498 9.02528Z" fill="#7491F6"/>
<path d="M60.2935 29.9346C58.2405 27.8619 57.214 25.345 57.214 22.384C57.214 19.423 58.2405 16.9061 60.2935 14.8334C62.3662 12.741 64.883 11.6948 67.8441 11.6948C70.8051 11.6948 73.3219 12.741 75.3946 14.8334C77.4673 16.9061 78.5037 19.423 78.5037 22.384C78.5037 24.358 77.9806 26.1939 76.9344 27.8915C75.8881 29.5694 74.4866 30.892 72.7297 31.8593L76.431 37.6925C76.5692 37.8899 76.579 38.0873 76.4606 38.2847C76.3619 38.4821 76.1941 38.5808 75.9572 38.5808H72.8186C72.6014 38.5808 72.4435 38.4821 72.3448 38.2847L69.1765 32.9252C68.7027 32.9844 68.2586 33.0141 67.8441 33.0141C64.883 33.0141 62.3662 31.9876 60.2935 29.9346ZM63.0472 17.5576C61.7246 18.8999 61.0633 20.5087 61.0633 22.384C61.0633 24.2593 61.7246 25.8583 63.0472 27.1809C64.3895 28.5034 65.9885 29.1647 67.8441 29.1647C69.7194 29.1647 71.3183 28.5034 72.6409 27.1809C73.9832 25.8385 74.6544 24.2396 74.6544 22.384C74.6544 20.5087 73.9832 18.8999 72.6409 17.5576C71.2986 16.2152 69.6996 15.5441 67.8441 15.5441C65.9885 15.5441 64.3895 16.2152 63.0472 17.5576ZM80.2835 27.1809V21.4365C80.2835 21.2786 80.3329 21.1503 80.4316 21.0516C80.55 20.9331 80.6882 20.8739 80.8461 20.8739H83.2742C83.4321 20.8739 83.5604 20.9331 83.6591 21.0516C83.7775 21.1503 83.8368 21.2786 83.8368 21.4365V27.2697C83.8368 28.0593 84.0243 28.6811 84.3994 29.1351C84.7942 29.5892 85.3271 29.8162 85.9983 29.8162C86.5905 29.8162 87.1037 29.5892 87.538 29.1351C87.992 28.6811 88.2684 28.1679 88.3671 27.5954V21.4365C88.3671 21.2194 88.4165 21.0713 88.5152 20.9923C88.6139 20.9134 88.7817 20.8739 89.0185 20.8739H91.2689C91.4268 20.8739 91.5551 20.9331 91.6538 21.0516C91.7723 21.1503 91.8315 21.2786 91.8315 21.4365V32.1554C91.8315 32.2935 91.7723 32.4219 91.6538 32.5403C91.5551 32.6587 91.4268 32.718 91.2689 32.718H90.1733C89.9167 32.718 89.7292 32.5699 89.6107 32.2738L89.2554 31.2967C89.2357 31.3164 89.1567 31.3855 89.0185 31.5039C88.9001 31.6224 88.8014 31.7112 88.7224 31.7704C88.6632 31.8297 88.5448 31.9185 88.3671 32.0369C88.2092 32.1554 88.0611 32.2541 87.923 32.333C87.8045 32.412 87.6367 32.5008 87.4196 32.5995C87.2222 32.6982 87.0149 32.7673 86.7978 32.8068C86.6004 32.866 86.3635 32.9154 86.0871 32.9548C85.8305 32.9943 85.564 33.0141 85.2877 33.0141C83.5703 33.0141 82.3069 32.4613 81.4976 31.3559C80.6882 30.2504 80.2835 28.8588 80.2835 27.1809ZM96.5374 16.6693C95.9847 16.6693 95.5109 16.4719 95.1161 16.0771C94.7213 15.6823 94.5239 15.1986 94.5239 14.6262C94.5239 14.0537 94.7213 13.5701 95.1161 13.1753C95.5109 12.7805 95.9847 12.5831 96.5374 12.5831C97.1099 12.5831 97.5935 12.7805 97.9883 13.1753C98.4029 13.5701 98.6101 14.0537 98.6101 14.6262C98.6101 15.1986 98.4029 15.6823 97.9883 16.0771C97.5935 16.4719 97.1099 16.6693 96.5374 16.6693ZM94.7904 32.1554V21.4365C94.7904 21.2786 94.8398 21.1503 94.9385 21.0516C95.0569 20.9331 95.1951 20.8739 95.353 20.8739H97.8107C97.9686 20.8739 98.0969 20.9331 98.1956 21.0516C98.314 21.1503 98.3733 21.2786 98.3733 21.4365V32.1554C98.3733 32.2935 98.314 32.4219 98.1956 32.5403C98.0969 32.6587 97.9686 32.718 97.8107 32.718H95.353C95.2148 32.718 95.0865 32.6587 94.9681 32.5403C94.8496 32.4219 94.7904 32.2935 94.7904 32.1554ZM100.452 32.1554V31.8593L104.657 24.1014V24.0422H101.281C101.143 24.0422 101.015 23.9928 100.896 23.8941C100.798 23.7757 100.748 23.6375 100.748 23.4796V21.4365C100.748 21.2786 100.798 21.1503 100.896 21.0516C100.995 20.9331 101.123 20.8739 101.281 20.8739H109.098C109.316 20.8739 109.483 20.9627 109.602 21.1404C109.72 21.2983 109.72 21.476 109.602 21.6734L105.308 29.4905V29.5793H108.506C108.881 29.5793 109.069 29.7668 109.069 30.1419V32.1554C109.069 32.3133 109.01 32.4515 108.891 32.5699C108.792 32.6686 108.664 32.718 108.506 32.718H101.015C100.877 32.718 100.748 32.6587 100.63 32.5403C100.511 32.4219 100.452 32.2935 100.452 32.1554ZM111.385 27.1809V21.4365C111.385 21.2786 111.434 21.1503 111.533 21.0516C111.651 20.9331 111.789 20.8739 111.947 20.8739H114.375C114.533 20.8739 114.661 20.9331 114.76 21.0516C114.879 21.1503 114.938 21.2786 114.938 21.4365V27.2697C114.938 28.0593 115.125 28.6811 115.5 29.1351C115.895 29.5892 116.428 29.8162 117.099 29.8162C117.692 29.8162 118.205 29.5892 118.639 29.1351C119.093 28.6811 119.369 28.1679 119.468 27.5954V21.4365C119.468 21.2194 119.518 21.0713 119.616 20.9923C119.715 20.9134 119.883 20.8739 120.12 20.8739H122.37C122.528 20.8739 122.656 20.9331 122.755 21.0516C122.873 21.1503 122.933 21.2786 122.933 21.4365V32.1554C122.933 32.2935 122.873 32.4219 122.755 32.5403C122.656 32.6587 122.528 32.718 122.37 32.718H121.274C121.018 32.718 120.83 32.5699 120.712 32.2738L120.356 31.2967C120.337 31.3164 120.258 31.3855 120.12 31.5039C120.001 31.6224 119.902 31.7112 119.823 31.7704C119.764 31.8297 119.646 31.9185 119.468 32.0369C119.31 32.1554 119.162 32.2541 119.024 32.333C118.906 32.412 118.738 32.5008 118.521 32.5995C118.323 32.6982 118.116 32.7673 117.899 32.8068C117.701 32.866 117.465 32.9154 117.188 32.9548C116.932 32.9943 116.665 33.0141 116.389 33.0141C114.671 33.0141 113.408 32.4613 112.599 31.3559C111.789 30.2504 111.385 28.8588 111.385 27.1809ZM129.534 32.3626V41.0384C129.534 41.4135 129.297 41.601 128.823 41.601H126.454C126.316 41.601 126.188 41.5418 126.069 41.4233C125.951 41.3049 125.891 41.1766 125.891 41.0384V21.4365C125.891 21.2786 125.941 21.1503 126.04 21.0516C126.158 20.9331 126.296 20.8739 126.454 20.8739H127.609C127.846 20.8739 128.014 20.9923 128.112 21.2292L128.497 22.2064C128.774 21.8313 129.257 21.4661 129.948 21.1108C130.659 20.7555 131.448 20.5778 132.317 20.5778C133.936 20.5778 135.288 21.1897 136.373 22.4136C137.479 23.6178 138.032 25.0785 138.032 26.7959C138.032 28.5331 137.459 30.0037 136.314 31.2078C135.169 32.412 133.788 33.0141 132.169 33.0141C131.182 33.0141 130.303 32.7969 129.534 32.3626ZM129.385 29.1351C129.938 29.5892 130.708 29.8162 131.695 29.8162C132.524 29.8162 133.205 29.5299 133.738 28.9575C134.291 28.3653 134.567 27.6448 134.567 26.7959C134.567 25.9471 134.311 25.2365 133.797 24.664C133.284 24.0718 132.623 23.7757 131.814 23.7757C131.142 23.7757 130.599 23.9731 130.185 24.3679C129.77 24.7627 129.504 25.1674 129.385 25.5819V29.1351Z" fill="white"/>
</svg>
